<svg xmlns="http://www.w3.org/2000/svg" xmlns:xlink="http://www.w3.org/1999/xlink" width="700" zoomAndPan="magnify" viewBox="0 0 525 525.000007" height="700" preserveAspectRatio="xMidYMid meet" version="1.0"><defs><clipPath id="eb0591de81"><path d="M 1 155 L 524 155 L 524 515.769531 L 1 515.769531 Z M 1 155 " clip-rule="nonzero"/></clipPath><clipPath id="809cb294c5"><path d="M 1 159 L 524 159 L 524 520.054688 L 1 520.054688 Z M 1 159 " clip-rule="nonzero"/></clipPath><clipPath id="19c7967288"><path d="M 99 4.289062 L 426 4.289062 L 426 161 L 99 161 Z M 99 4.289062 " clip-rule="nonzero"/></clipPath></defs><g clip-path="url(#eb0591de81)"><path fill="#0b1d38" d="M 49.144531 183.003906 C 37.796875 183.003906 28.828125 192.007812 28.828125 203.332031 L 28.828125 468.054688 C 28.828125 473.550781 30.78125 478.617188 34.6875 482.523438 C 38.589844 486.433594 43.6875 488.386719 49.144531 488.386719 L 475.855469 488.386719 C 481.3125 488.386719 486.011719 486.433594 490.3125 482.523438 C 494.21875 478.617188 496.171875 473.917969 496.171875 468.453125 L 496.171875 203.332031 C 496.171875 192.007812 487.203125 183.003906 475.855469 183.003906 L 49.542969 183.003906 M 49.144531 155.621094 L 475.855469 155.621094 C 502.027344 155.621094 523.535156 177.140625 523.535156 203.332031 L 523.535156 468.054688 C 523.535156 480.96875 518.4375 492.691406 509.46875 501.695312 C 500.472656 510.667969 488.359375 515.769531 475.855469 515.769531 L 49.144531 515.769531 C 36.640625 515.769531 24.527344 510.667969 15.53125 501.695312 C 6.5625 492.691406 1.464844 480.570312 1.464844 468.054688 L 1.464844 203.332031 C 1.464844 177.140625 22.972656 155.621094 49.144531 155.621094 Z M 49.144531 155.621094 " fill-opacity="1" fill-rule="nonzero"/></g><path fill="#0b1d38" d="M 147.617188 156.414062 L 222.261719 96.585938 L 226.929688 100.492188 C 237.089844 108.703125 249.597656 113.007812 262.5 113.007812 C 275.402344 113.007812 287.910156 108.703125 298.070312 100.492188 L 302.738281 96.585938 L 376.984375 156.019531 L 425.460938 156.019531 L 317.59375 70.394531 L 318.386719 65.691406 C 318.78125 62.578125 319.148438 59.433594 319.148438 56.320312 C 319.148438 41.058594 313.292969 26.984375 302.738281 16.421875 C 292.210938 5.859375 277.753906 0 262.898438 0 C 248.039062 0 233.582031 5.859375 223.027344 16.421875 C 212.472656 26.984375 206.613281 41.453125 206.613281 56.320312 C 206.613281 71.15625 206.613281 62.578125 207.40625 65.691406 L 208.171875 70.394531 L 99.9375 156.414062 L 148.410156 156.414062 Z M 262.5 34.800781 C 268.355469 34.800781 273.453125 37.148438 277.355469 41.058594 C 281.261719 44.964844 283.609375 50.429688 283.609375 56.320312 C 283.609375 62.179688 281.261719 67.25 277.355469 71.554688 C 273.453125 75.460938 267.960938 77.8125 262.101562 77.8125 C 256.246094 77.8125 251.183594 75.460938 246.882812 71.554688 C 242.976562 67.644531 240.628906 62.179688 240.628906 56.320312 C 240.628906 50.429688 242.976562 45.363281 246.882812 41.058594 C 250.785156 37.148438 256.246094 34.800781 262.101562 34.800781 Z M 262.5 34.800781 " fill-opacity="1" fill-rule="nonzero"/><g clip-path="url(#809cb294c5)"><path fill="#0b1d38" d="M 49.144531 187.289062 C 37.796875 187.289062 28.828125 196.296875 28.828125 207.621094 L 28.828125 472.34375 C 28.828125 477.835938 30.78125 482.90625 34.6875 486.8125 C 38.589844 490.71875 43.6875 492.671875 49.144531 492.671875 L 475.855469 492.671875 C 481.3125 492.671875 486.011719 490.71875 490.3125 486.8125 C 494.21875 482.90625 496.171875 478.203125 496.171875 472.738281 L 496.171875 207.621094 C 496.171875 196.296875 487.203125 187.289062 475.855469 187.289062 L 49.542969 187.289062 M 49.144531 159.910156 L 475.855469 159.910156 C 502.027344 159.910156 523.535156 181.429688 523.535156 207.621094 L 523.535156 472.34375 C 523.535156 485.253906 518.4375 496.976562 509.46875 505.980469 C 500.472656 514.957031 488.359375 520.054688 475.855469 520.054688 L 49.144531 520.054688 C 36.640625 520.054688 24.527344 514.957031 15.53125 505.980469 C 6.5625 496.976562 1.464844 484.859375 1.464844 472.34375 L 1.464844 207.621094 C 1.464844 181.429688 22.972656 159.910156 49.144531 159.910156 Z M 49.144531 159.910156 " fill-opacity="1" fill-rule="nonzero"/></g><g clip-path="url(#19c7967288)"><path fill="#0b1d38" d="M 147.617188 160.703125 L 222.261719 100.871094 L 226.929688 104.777344 C 237.089844 112.992188 249.597656 117.292969 262.5 117.292969 C 275.402344 117.292969 287.910156 112.992188 298.070312 104.777344 L 302.738281 100.871094 L 376.984375 160.304688 L 425.460938 160.304688 L 317.59375 74.679688 L 318.386719 69.980469 C 318.78125 66.867188 319.148438 63.722656 319.148438 60.609375 C 319.148438 45.34375 313.292969 31.273438 302.738281 20.710938 C 292.210938 10.148438 277.753906 4.289062 262.898438 4.289062 C 248.039062 4.289062 233.582031 10.148438 223.027344 20.710938 C 212.472656 31.273438 206.613281 45.742188 206.613281 60.609375 C 206.613281 75.445312 206.613281 66.867188 207.40625 69.980469 L 208.171875 74.679688 L 99.9375 160.703125 L 148.410156 160.703125 Z M 262.5 39.085938 C 268.355469 39.085938 273.453125 41.4375 277.355469 45.34375 C 281.261719 49.253906 283.609375 54.714844 283.609375 60.609375 C 283.609375 66.46875 281.261719 71.535156 277.355469 75.839844 C 273.453125 79.746094 267.960938 82.097656 262.101562 82.097656 C 256.246094 82.097656 251.183594 79.746094 246.882812 75.839844 C 242.976562 71.933594 240.628906 66.46875 240.628906 60.609375 C 240.628906 54.714844 242.976562 49.648438 246.882812 45.34375 C 250.785156 41.4375 256.246094 39.085938 262.101562 39.085938 Z M 262.5 39.085938 " fill-opacity="1" fill-rule="nonzero"/></g></svg>